# Made in Blockbench 4.8.3
mtllib Boulder5.mtl

o Boulder
v 0.024270806090132324 -0.3491665785305114 -0.1346054546035613
v -0.024270806090132317 0.3491665785305114 0.13460545460356124
v 0.015645642734723783 0.21656621440904897 0.1797768108735706
v 0.04639708623762277 -0.04289570096143472 0.11963734953402524
v 0.049969745877116424 -0.2772298964762106 -0.010584048596181658
v 0.06943297065389083 0.23764886602454383 0.13478683968156807
v 0.12246385486471785 -0.013080329116014866 0.056011922103520385
v 0.1037570737962835 -0.2561472448607157 -0.05557401978818424
v 0.07249410898760143 0.26414956736019574 0.066595970699702
v 0.12679295821255157 0.02439732212526285 -0.040424529640641436
v 0.10681821212999411 -0.22964654352506383 -0.12376488877005033
v 0.02303588441626811 0.28054456698597857 0.015149490147542771
v 0.0568484662528777 0.047583352951146796 -0.1131808401738687
v 0.057359987558660744 -0.21325154389928097 -0.17521136932220954
v -0.0499697458771164 0.2772298964762106 0.010584048596181589
v -0.046397086237622745 0.0428957009614348 -0.11963734953402534
v -0.01564564273472377 -0.21656621440904894 -0.17977681087357072
v -0.10375707379628347 0.2561472448607158 0.05557401978818413
v -0.12246385486471782 0.013080329116014965 -0.0560119221035205
v -0.06943297065389083 -0.23764886602454377 -0.13478683968156818
v -0.10681821212999408 0.22964654352506386 0.12376488877005026
v -0.12679295821255157 -0.024397322125262796 0.040424529640641416
v -0.07249410898760143 -0.2641495673601957 -0.06659597069970205
v -0.057359987558660785 0.213251543899281 0.17521136932220943
v -0.05684846625287776 -0.04758335295114671 0.11318084017386859
v -0.02303588441626815 -0.2805445669859785 -0.015149490147542868
vt 0.4723754905861778 0.8113740197265472
vt 0.5078125 0.8021711114875894
vt 0.5078125 0.875
vt 0.38549375 0.9942375
vt 0.3779125 0.8604
vt 0.4296875 0.8604
vt 0.42210625 0.9942375
vt 0.3779125 0.8604
vt 0.38549375 0.7265625
vt 0.42210625 0.7265625
vt 0.4296875 0.8604
vt 0.5385735188771771 0.5370507505227866
vt 0.5065875 0.554865625
vt 0.48828125 0.484375
vt 0.1965375 0.929509375
vt 0.23315 0.929509375
vt 0.21484375 1
vt 0.1965375 0.929509375
vt 0.18895625 0.795671875
vt 0.24073125 0.795671875
vt 0.23315 0.929509375
vt 0.18895625 0.795671875
vt 0.1965375 0.661834375
vt 0.23315 0.661834375
vt 0.24073125 0.795671875
vt 0.505999754706911 0.9855009802734528
vt 0.4705627452930889 0.9947038885124105
vt 0.4705627452930889 0.921875
vt 0.007581250000000001 0.554509375
vt 0.044193750000000004 0.554509375
vt 0.0258875 0.625
vt 0.007581250000000001 0.554509375
vt 0 0.42067187500000003
vt 0.051775 0.42067187500000003
vt 0.044193750000000004 0.554509375
vt 0 0.42067187500000003
vt 0.007581250000000001 0.286834375
vt 0.044193750000000004 0.286834375
vt 0.051775 0.42067187500000003
vt 0.43872500000000003 0.679865625
vt 0.4067389811228229 0.6620507505227866
vt 0.45703125 0.609375
vt 0.0090375 0.929509375
vt 0.04565 0.929509375
vt 0.02734375 1
vt 0.0090375 0.929509375
vt 0.0014562499999999992 0.795671875
vt 0.05323125 0.795671875
vt 0.04565 0.929509375
vt 0.0014562499999999992 0.795671875
vt 0.0090375 0.661834375
vt 0.04565 0.661834375
vt 0.05323125 0.795671875
vt 0.47533749999999997 0.679865625
vt 0.43872500000000003 0.679865625
vt 0.45703125 0.609375
vt 0.2817389811228229 0.5723242494772134
vt 0.31372500000000003 0.554509375
vt 0.33203125 0.625
vt 0.19799375 0.625
vt 0.19041249999999998 0.49116249999999995
vt 0.2421875 0.49116249999999995
vt 0.23460625000000002 0.625
vt 0.19041249999999998 0.49116249999999995
vt 0.19799375 0.357325
vt 0.23460625000000002 0.357325
vt 0.2421875 0.49116249999999995
vt 0.5073235188771771 0.6620507505227866
vt 0.47533749999999997 0.679865625
vt 0.45703125 0.609375
vt 0.31372500000000003 0.554509375
vt 0.35033749999999997 0.554509375
vt 0.33203125 0.625
vt 0.2902875 0.994415625
vt 0.28270625 0.8605781250000001
vt 0.33448125 0.8605781250000001
vt 0.3269 0.994415625
vt 0.28270625 0.8605781250000001
vt 0.2902875 0.726740625
vt 0.3269 0.726740625
vt 0.33448125 0.8605781250000001
vt 0.3269 0.726740625
vt 0.2902875 0.726740625
vt 0.30859375 0.65625
vt 0.35033749999999997 0.554509375
vt 0.3823235188771771 0.5723242494772134
vt 0.33203125 0.625
vt 0.10133125 0.6192375
vt 0.09375 0.48540000000000005
vt 0.14552500000000002 0.48540000000000005
vt 0.13794375 0.6192375
vt 0.09375 0.48540000000000005
vt 0.10133125 0.3515625
vt 0.13794375 0.3515625
vt 0.14552500000000002 0.48540000000000005
vt 0.46997500000000003 0.554865625
vt 0.4379889811228229 0.5370507505227866
vt 0.48828125 0.484375
vt 0.1027875 0.929509375
vt 0.1394 0.929509375
vt 0.12109375 1
vt 0.1027875 0.929509375
vt 0.09520624999999999 0.795671875
vt 0.14698125 0.795671875
vt 0.1394 0.929509375
vt 0.09520624999999999 0.795671875
vt 0.1027875 0.661834375
vt 0.1394 0.661834375
vt 0.14698125 0.795671875
vt 0.5065875 0.554865625
vt 0.46997500000000003 0.554865625
vt 0.48828125 0.484375
vn 0.485637510829319 0.4093176885027061 0.7724087246751585
vn 0.6602438812371637 -0.09444851928217932 0.7450889171731719
vn 0.6779484491664911 -0.3491513662040042 0.6468997014612288
vn 0.5667917237741049 -0.7581894293918257 0.3223289174425357
vn 0.7361719608196502 0.619020252988479 0.2736142731895233
vn 0.9788052328754933 0.1721939819274939 0.11085823687712736
vn 0.9965098008048209 -0.08250886499433098 0.012669021165184249
vn 0.8173261737644361 -0.5484868649060528 -0.17646553404309953
vn 0.5316973417509543 0.8080640664049713 -0.2536343852083762
vn 0.7188102061285923 0.41256832055895215 -0.5595527396381296
vn 0.7365147740579194 0.15786547363712736 -0.6577419553500728
vn 0.61285155469574 -0.3594430514895603 -0.7037141924409993
vn -0.008007887687398851 0.8657098267355312 -0.50048213717207
vn 0.032560361515239764 0.4858664690883502 -0.8734263546937523
vn 0.05026492944456716 0.23116362216652528 -0.9716155704056954
vn 0.07314632525738705 -0.30179729115900045 -0.9505619444046929
vn -0.5667917237741047 0.7581894293918255 -0.3223289174425358
vn -0.6779484491664909 0.3491513662040044 -0.646899701461229
vn -0.6602438812371636 0.09444851928217943 -0.745088917173172
vn -0.48563751082931866 -0.40931768850270633 -0.7724087246751586
vn -0.8173261737644362 0.5484868649060527 0.1764655340430995
vn -0.9965098008048209 0.08250886499433105 -0.012669021165184351
vn -0.9788052328754934 -0.17219398192749388 -0.11085823687712736
vn -0.7361719608196502 -0.6190202529884788 -0.2736142731895233
vn -0.6128515546957403 0.35944305148956035 0.7037141924409991
vn -0.7365147740579198 -0.1578654736371271 0.6577419553500727
vn -0.7188102061285923 -0.4125683205589522 0.5595527396381296
vn -0.5316973417509543 -0.8080640664049714 0.25363438520837633
vn -0.07314632525738704 0.3017972911590002 0.9505619444046928
vn -0.050264929444567286 -0.23116362216652533 0.9716155704056954
vn -0.03256036151524012 -0.4858664690883502 0.8734263546937522
vn 0.008007887687398553 -0.8657098267355312 0.50048213717207
usemtl m_b0909f36-fd4c-93b2-f49f-081f1d1659bd
f 3/1/1 6/2/1 2/3/1
f 3/4/2 4/5/2 7/6/2 6/7/2
f 4/8/3 5/9/3 8/10/3 7/11/3
f 8/12/4 5/13/4 1/14/4
f 6/15/5 9/16/5 2/17/5
f 6/18/6 7/19/6 10/20/6 9/21/6
f 7/22/7 8/23/7 11/24/7 10/25/7
f 11/26/8 8/27/8 1/28/8
f 9/29/9 12/30/9 2/31/9
f 9/32/10 10/33/10 13/34/10 12/35/10
f 10/36/11 11/37/11 14/38/11 13/39/11
f 14/40/12 11/41/12 1/42/12
f 12/43/13 15/44/13 2/45/13
f 12/46/14 13/47/14 16/48/14 15/49/14
f 13/50/15 14/51/15 17/52/15 16/53/15
f 17/54/16 14/55/16 1/56/16
f 15/57/17 18/58/17 2/59/17
f 15/60/18 16/61/18 19/62/18 18/63/18
f 16/64/19 17/65/19 20/66/19 19/67/19
f 20/68/20 17/69/20 1/70/20
f 18/71/21 21/72/21 2/73/21
f 18/74/22 19/75/22 22/76/22 21/77/22
f 19/78/23 20/79/23 23/80/23 22/81/23
f 23/82/24 20/83/24 1/84/24
f 21/85/25 24/86/25 2/87/25
f 21/88/26 22/89/26 25/90/26 24/91/26
f 22/92/27 23/93/27 26/94/27 25/95/27
f 26/96/28 23/97/28 1/98/28
f 24/99/29 3/100/29 2/101/29
f 24/102/30 25/103/30 4/104/30 3/105/30
f 25/106/31 26/107/31 5/108/31 4/109/31
f 5/110/32 26/111/32 1/112/32