# Made in Blockbench 4.8.3
mtllib Boulder4.mtl

o Boulder
v -0.0625 -0.125 0.062499999999999944
v -0.0625 0.125 0.062499999999999944
v -0.025888347648318433 0.08838834764831843 0.15088834764831838
v -0.0107233047033631 2.7755575615628914e-17 0.18749999999999994
v -0.025888347648318433 -0.08838834764831843 0.15088834764831838
v 0.025888347648318433 0.08838834764831843 0.09911165235168151
v 0.0625 2.7755575615628914e-17 0.11427669529663687
v 0.025888347648318488 -0.08838834764831843 0.09911165235168154
v 0.025888347648318433 0.08838834764831843 0.025888347648318377
v 0.0625 2.7755575615628914e-17 0.010723304703363079
v 0.025888347648318488 -0.08838834764831843 0.025888347648318377
v -0.025888347648318433 0.08838834764831843 -0.025888347648318488
v -0.0107233047033631 2.7755575615628914e-17 -0.06250000000000006
v -0.025888347648318433 -0.08838834764831843 -0.025888347648318488
v -0.09911165235168154 0.08838834764831843 -0.025888347648318488
v -0.11427669529663687 2.7755575615628914e-17 -0.06250000000000006
v -0.09911165235168154 -0.08838834764831843 -0.025888347648318488
v -0.15088834764831843 0.08838834764831843 0.025888347648318377
v -0.1875 2.7755575615628914e-17 0.010723304703363024
v -0.15088834764831843 -0.08838834764831843 0.02588834764831832
v -0.15088834764831843 0.08838834764831843 0.09911165235168154
v -0.1875 2.7755575615628914e-17 0.11427669529663687
v -0.15088834764831843 -0.08838834764831843 0.09911165235168154
v -0.09911165235168162 0.08838834764831843 0.15088834764831838
v -0.11427669529663698 2.7755575615628914e-17 0.18749999999999994
v -0.09911165235168162 -0.08838834764831843 0.15088834764831838
vt 0.1381728796458381 0.8188191515361678
vt 0.19269000929530514 0.8677045603999913
vt 0.10155829331937571 0.9144933531235969
vt 0.7084874999999999 0.625
vt 0.693325 0.5
vt 0.796875 0.5
vt 0.7817125 0.625
vt 0.193325 0.25
vt 0.2084875 0.125
vt 0.2817125 0.125
vt 0.296875 0.25
vt 0.1926900092953051 0.6947954396000087
vt 0.13817287964583802 0.7436808484638322
vt 0.1015582933193757 0.6480066468764031
vt 0.19269000929530516 0.8677045603999913
vt 0.20064267881300535 0.9404964258283635
vt 0.10156348607258367 0.9144906870632588
vt 0.205575 0.4375
vt 0.19041249999999998 0.3125
vt 0.2939625 0.3125
vt 0.2788 0.4375
vt 0.5029125 1
vt 0.518075 0.875
vt 0.5913 0.875
vt 0.6064625 1
vt 0.20064267881300535 0.6220035741716365
vt 0.1926900092953051 0.6947954396000087
vt 0.10156348607258366 0.6480093129367412
vt 0.20064267881300535 0.9404964258283635
vt 0.1579660191729409 0.9999993950565129
vt 0.10156348607258367 0.9144906870632588
vt 0.5776625 0.4375
vt 0.5625 0.3125
vt 0.66605 0.3125
vt 0.6508875000000001 0.4375
vt 0.375 0.4375
vt 0.3901625 0.3125
vt 0.4633875 0.3125
vt 0.47855000000000003 0.4375
vt 0.1579660191729409 0.5625006049434871
vt 0.20064267881300535 0.6220035741716365
vt 0.10156348607258366 0.6480093129367412
vt 0.5659698641632774 0.25
vt 0.5921420045666986 0.18161199160888208
vt 0.6684051358367226 0.25
vt 0.018075 0.5
vt 0.0029124999999999984 0.375
vt 0.1064625 0.375
vt 0.0913 0.5
vt 0.3154125 1
vt 0.330575 0.875
vt 0.4038 0.875
vt 0.4189625 1
vt 0.823256504195559 0.40438813127002393
vt 0.754868495804441 0.4305602716734451
vt 0.754868495804441 0.328125
vt 0.045160278367340975 1
vt 0.0024823211869946793 0.9404979614138093
vt 0.10156602550927837 0.9144864193790845
vt 0.3959875 0.25
vt 0.38082499999999997 0.125
vt 0.484375 0.125
vt 0.46921250000000003 0.25
vt 0.693325 1
vt 0.7084875 0.875
vt 0.7817125 0.875
vt 0.796875 1
vt 0.0024823211869946654 0.6220020385861906
vt 0.045160278367341 0.5625
vt 0.10156602550927833 0.6480135806209155
vt 0.0024823211869946515 0.9404979614138093
vt 0.010431816028122626 0.8677057492151758
vt 0.10156037964583808 0.9144879015361678
vt 0.518075 0.625
vt 0.5029125 0.5
vt 0.6064625 0.5
vt 0.5913 0.625
vt 0.5029125 0.8125
vt 0.518075 0.6875
vt 0.5913 0.6875
vt 0.6064625 0.8125
vt 0.010431816028122612 0.6947942507848242
vt 0.0024823211869946654 0.6220020385861906
vt 0.1015603796458381 0.6480120984638322
vt 0.010431816028122654 0.8677057492151758
vt 0.06494787964583809 0.8188191515361678
vt 0.10156037964583811 0.9144879015361678
vt 0.7026625 0.8125
vt 0.6875 0.6875
vt 0.79105 0.6875
vt 0.7758875000000001 0.8125
vt 0 0.3125
vt 0.015162500000000002 0.1875
vt 0.08838750000000001 0.1875
vt 0.10355 0.3125
vt 0.06494787964583802 0.7436808484638322
vt 0.010431816028122612 0.6947942507848242
vt 0.10156037964583807 0.6480120984638322
vt 0.0649478796458381 0.8188191515361678
vt 0.1381728796458381 0.8188191515361678
vt 0.10156037964583811 0.9144879015361678
vt 0.330575 0.625
vt 0.3154125 0.5
vt 0.4189625 0.5
vt 0.4038 0.625
vt 0.3154125 0.8125
vt 0.330575 0.6875
vt 0.4038 0.6875
vt 0.4189625 0.8125
vt 0.13817287964583802 0.7436808484638322
vt 0.06494787964583804 0.7436808484638322
vt 0.10156037964583804 0.6480120984638322
vn 0.27059805007309856 0.9238795325112867 0.27059805007309856
vn 0.6532814824381881 0.38268343236509 0.6532814824381883
vn 0.6532814824381877 -0.38268343236509006 0.6532814824381888
vn 0.2705980500730983 -0.9238795325112867 0.2705980500730987
vn 0.38268343236509 0.9238795325112868 0
vn 0.9238795325112868 0.38268343236509006 0
vn 0.9238795325112871 -0.38268343236508934 0
vn 0.38268343236508967 -0.9238795325112868 0
vn 0.27059805007309856 0.9238795325112867 -0.27059805007309856
vn 0.6532814824381884 0.38268343236508984 -0.6532814824381882
vn 0.6532814824381882 -0.3826834323650891 -0.6532814824381888
vn 0.2705980500730984 -0.9238795325112868 -0.2705980500730987
vn 0 0.9238795325112867 -0.3826834323650899
vn 0 0.38268343236509006 -0.9238795325112868
vn 0 -0.3826834323650898 -0.923879532511287
vn 0 -0.9238795325112867 -0.3826834323650899
vn -0.2705980500730985 0.9238795325112867 -0.2705980500730986
vn -0.6532814824381881 0.38268343236509017 -0.6532814824381884
vn -0.6532814824381877 -0.3826834323650899 -0.6532814824381888
vn -0.2705980500730983 -0.9238795325112867 -0.27059805007309873
vn -0.3826834323650899 0.9238795325112867 0
vn -0.9238795325112867 0.38268343236508995 0
vn -0.9238795325112867 -0.3826834323650897 0
vn -0.3826834323650899 -0.9238795325112867 0
vn -0.27059805007309856 0.923879532511287 0.27059805007309845
vn -0.6532814824381884 0.38268343236509 0.653281482438188
vn -0.6532814824381885 -0.3826834323650898 0.6532814824381882
vn -0.27059805007309856 -0.923879532511287 0.27059805007309845
vn 0 0.9238795325112867 0.38268343236508984
vn 0 0.38268343236509 0.9238795325112867
vn 0 -0.3826834323650898 0.9238795325112867
vn 0 -0.9238795325112867 0.38268343236508984
usemtl m_a9a09c10-5dc8-84ca-4fd9-a06b0a4fe1b3
f 3/1/1 6/2/1 2/3/1
f 3/4/2 4/5/2 7/6/2 6/7/2
f 4/8/3 5/9/3 8/10/3 7/11/3
f 8/12/4 5/13/4 1/14/4
f 6/15/5 9/16/5 2/17/5
f 6/18/6 7/19/6 10/20/6 9/21/6
f 7/22/7 8/23/7 11/24/7 10/25/7
f 11/26/8 8/27/8 1/28/8
f 9/29/9 12/30/9 2/31/9
f 9/32/10 10/33/10 13/34/10 12/35/10
f 10/36/11 11/37/11 14/38/11 13/39/11
f 14/40/12 11/41/12 1/42/12
f 12/43/13 15/44/13 2/45/13
f 12/46/14 13/47/14 16/48/14 15/49/14
f 13/50/15 14/51/15 17/52/15 16/53/15
f 17/54/16 14/55/16 1/56/16
f 15/57/17 18/58/17 2/59/17
f 15/60/18 16/61/18 19/62/18 18/63/18
f 16/64/19 17/65/19 20/66/19 19/67/19
f 20/68/20 17/69/20 1/70/20
f 18/71/21 21/72/21 2/73/21
f 18/74/22 19/75/22 22/76/22 21/77/22
f 19/78/23 20/79/23 23/80/23 22/81/23
f 23/82/24 20/83/24 1/84/24
f 21/85/25 24/86/25 2/87/25
f 21/88/26 22/89/26 25/90/26 24/91/26
f 22/92/27 23/93/27 26/94/27 25/95/27
f 26/96/28 23/97/28 1/98/28
f 24/99/29 3/100/29 2/101/29
f 24/102/30 25/103/30 4/104/30 3/105/30
f 25/106/31 26/107/31 5/108/31 4/109/31
f 5/110/32 26/111/32 1/112/32