# Made in Blockbench 4.8.3
mtllib Boulder3.mtl

o Boulder
v 4.625929269271487e-19 -0.0625 -4.163336342344337e-17
v 4.625929269271487e-19 0.0625 -4.163336342344337e-17
v 0.03661165235168157 0.044194173824159216 0.08838834764831838
v 0.0517766952966369 3.827021247335478e-18 0.12499999999999994
v 0.036611652351681574 -0.044194173824159216 0.0883883476483184
v 0.08838834764831843 0.044194173824159216 0.03661165235168152
v 0.125 3.827021247335478e-18 0.05177669529663686
v 0.08838834764831846 -0.044194173824159216 0.03661165235168153
v 0.08838834764831843 0.044194173824159216 -0.036611652351681595
v 0.125 3.827021247335478e-18 -0.05177669529663692
v 0.08838834764831846 -0.044194173824159216 -0.03661165235168161
v 0.036611652351681574 0.044194173824159216 -0.08838834764831849
v 0.0517766952966369 3.827021247335478e-18 -0.12500000000000006
v 0.036611652351681574 -0.044194173824159216 -0.08838834764831849
v -0.03661165235168156 0.044194173824159216 -0.08838834764831849
v -0.05177669529663688 3.827021247335478e-18 -0.12500000000000006
v -0.03661165235168156 -0.044194173824159216 -0.08838834764831849
v -0.08838834764831843 0.044194173824159216 -0.03661165235168165
v -0.12499999999999999 3.827021247335478e-18 -0.051776695296637004
v -0.08838834764831843 -0.044194173824159216 -0.036611652351681664
v -0.08838834764831843 0.044194173824159216 0.03661165235168153
v -0.125 3.827021247335478e-18 0.05177669529663688
v -0.08838834764831843 -0.044194173824159216 0.03661165235168154
v -0.03661165235168162 0.044194173824159216 0.08838834764831838
v -0.05177669529663697 3.827021247335478e-18 0.12499999999999993
v -0.03661165235168162 -0.044194173824159216 0.08838834764831838
vt 0.05189277554796376 0.7456938405745542
vt 0.002449555551294197 0.6916820953577874
vt 0.09374999999999996 0.6577406324257217
vt 0.18505 0.4013309648094232
vt 0.20021250000000002 0.34394346480942317
vt 0.29024858586766833 0.3950913459153874
vt 0.24871868553993254 0.4375
vt 0.4502125 0.8123065351905768
vt 0.43505 0.7549190351905768
vt 0.4987186855399326 0.71875
vt 0.5402485858676683 0.7611586540846126
vt 0.002449555551294197 0.8708179046422126
vt 0.05189277554796373 0.8168061594254459
vt 0.09374999999999999 0.9047593675742783
vt 0.0024495555512942108 0.6916820953577874
vt 0.004603567421955057 0.6184887837927199
vt 0.09374999999999999 0.6577406324257217
vt 0.393075 0.4375
vt 0.3779125 0.375
vt 0.4814625 0.375
vt 0.4663 0.4375
vt 0.5654125 0.4375
vt 0.580575 0.375
vt 0.6538 0.375
vt 0.6689625 0.4375
vt 0.004603567421955057 0.9440112162072802
vt 0.002449555551294197 0.8708179046422126
vt 0.09375 0.9047593675742783
vt 0.004603567421955057 0.6184887837927199
vt 0.0571375 0.5674781324257216
vt 0.09375 0.6577406324257217
vt 0.29815631446006746 0.625
vt 0.25662641413233167 0.5825913459153874
vt 0.3466625 0.5314434648094232
vt 0.361825 0.5888309648094232
vt 0.25662641413233167 0.9486586540846126
vt 0.2981563144600674 0.90625
vt 0.361825 0.9424190351905768
vt 0.3466625 0.9998065351905768
vt 0.0571375 0.9950218675742784
vt 0.004603567421955057 0.9440112162072802
vt 0.09375000000000003 0.9047593675742783
vt 0.0571375 0.5674781324257216
vt 0.1303625 0.5674781324257216
vt 0.09375 0.6577406324257217
vt 0.361825 0.5888309648094232
vt 0.3466625 0.5314434648094232
vt 0.4502125 0.5314434648094232
vt 0.43505 0.5888309648094232
vt 0.3466625 0.9998065351905768
vt 0.361825 0.9424190351905768
vt 0.43505 0.9424190351905768
vt 0.4502125 0.9998065351905768
vt 0.1303625 0.9950218675742784
vt 0.0571375 0.9950218675742784
vt 0.09375 0.9047593675742783
vt 0.1303625 0.5674781324257216
vt 0.18289643257804494 0.6184887837927199
vt 0.09375 0.6577406324257217
vt 0.43505 0.5888309648094232
vt 0.4502125 0.5314434648094232
vt 0.5402485858676683 0.5825913459153874
vt 0.49871868553993254 0.625
vt 0.4502125 0.9998065351905768
vt 0.43505 0.9424190351905768
vt 0.4987186855399326 0.90625
vt 0.5402485858676683 0.9486586540846126
vt 0.18289643257804494 0.9440112162072802
vt 0.1303625 0.9950218675742784
vt 0.09374999999999997 0.9047593675742783
vt 0.18289643257804494 0.6184887837927199
vt 0.1850504444487058 0.6916820953577874
vt 0.09375000000000001 0.6577406324257217
vt 0.643075 1
vt 0.6279125 0.9375
vt 0.7314625 0.9375
vt 0.7163 1
vt 0.6279125 0.875
vt 0.643075 0.8125
vt 0.7163 0.8125
vt 0.7314625 0.875
vt 0.1850504444487058 0.8708179046422126
vt 0.18289643257804494 0.9440112162072802
vt 0.09375 0.9047593675742783
vt 0.1850504444487058 0.6916820953577874
vt 0.13560722445203624 0.7456938405745542
vt 0.09375000000000004 0.6577406324257217
vt 0.04815631446006746 0.4375
vt 0.0066264141323316705 0.3950913459153874
vt 0.0966625 0.34394346480942317
vt 0.111825 0.4013309648094232
vt 0.25662641413233167 0.7611586540846126
vt 0.2981563144600674 0.71875
vt 0.361825 0.7549190351905768
vt 0.3466625 0.8123065351905768
vt 0.13560722445203627 0.8168061594254459
vt 0.1850504444487058 0.8708179046422126
vt 0.09375000000000001 0.9047593675742783
vt 0.12499104923484808 0.75
vt 0.05189277554796377 0.7456938405745542
vt 0.09374999999999999 0.6577406324257217
vt 0.11182500000000001 0.4013309648094232
vt 0.0966625 0.34394346480942317
vt 0.20021250000000002 0.34394346480942317
vt 0.18505 0.4013309648094232
vt 0.3466625 0.8123065351905768
vt 0.361825 0.7549190351905768
vt 0.43505 0.7549190351905768
vt 0.4502125 0.8123065351905768
vt 0.06250895076515198 0.8125
vt 0.13560722445203627 0.8168061594254459
vt 0.09375 0.9047593675742783
vn 0.14340338385193657 0.9792195560749531 0.14340338385193657
vn 0.5445260693773267 0.6379519727510508 0.5445260693773268
vn 0.544526069377327 -0.6379519727510504 0.5445260693773272
vn 0.14340338385193652 -0.9792195560749534 0.14340338385193657
vn 0.2028030103336036 0.9792195560749531 0
vn 0.7700761523791285 0.6379519727510506 0
vn 0.770076152379129 -0.6379519727510503 0
vn 0.2028030103336035 -0.9792195560749531 0
vn 0.14340338385193657 0.9792195560749531 -0.14340338385193652
vn 0.544526069377327 0.6379519727510508 -0.5445260693773266
vn 0.5445260693773271 -0.6379519727510503 -0.5445260693773272
vn 0.14340338385193654 -0.9792195560749534 -0.14340338385193657
vn 0 0.9792195560749531 -0.20280301033360357
vn 0 0.6379519727510508 -0.7700761523791285
vn 0 -0.6379519727510506 -0.7700761523791286
vn 0 -0.9792195560749531 -0.20280301033360357
vn -0.1434033838519365 0.9792195560749531 -0.14340338385193657
vn -0.5445260693773266 0.6379519727510508 -0.5445260693773271
vn -0.5445260693773267 -0.6379519727510505 -0.5445260693773272
vn -0.14340338385193643 -0.9792195560749531 -0.14340338385193657
vn -0.20280301033360357 0.9792195560749531 0
vn -0.7700761523791285 0.6379519727510506 -1.0946262411130511e-16
vn -0.7700761523791289 -0.6379519727510505 0
vn -0.2028030103336036 -0.9792195560749531 0
vn -0.14340338385193657 0.9792195560749531 0.14340338385193646
vn -0.5445260693773268 0.6379519727510509 0.5445260693773266
vn -0.5445260693773271 -0.6379519727510508 0.5445260693773267
vn -0.14340338385193657 -0.9792195560749531 0.1434033838519365
vn 0 0.9792195560749531 0.2028030103336036
vn -1.0946262411130514e-16 0.6379519727510505 0.7700761523791287
vn -3.0960705518231163e-16 -0.6379519727510505 0.7700761523791289
vn -7.687326201944785e-17 -0.9792195560749531 0.20280301033360357
usemtl m_e39212e0-03a3-99a9-e07e-8db53b14c5fd
f 3/1/1 6/2/1 2/3/1
f 3/4/2 4/5/2 7/6/2 6/7/2
f 4/8/3 5/9/3 8/10/3 7/11/3
f 8/12/4 5/13/4 1/14/4
f 6/15/5 9/16/5 2/17/5
f 6/18/6 7/19/6 10/20/6 9/21/6
f 7/22/7 8/23/7 11/24/7 10/25/7
f 11/26/8 8/27/8 1/28/8
f 9/29/9 12/30/9 2/31/9
f 9/32/10 10/33/10 13/34/10 12/35/10
f 10/36/11 11/37/11 14/38/11 13/39/11
f 14/40/12 11/41/12 1/42/12
f 12/43/13 15/44/13 2/45/13
f 12/46/14 13/47/14 16/48/14 15/49/14
f 13/50/15 14/51/15 17/52/15 16/53/15
f 17/54/16 14/55/16 1/56/16
f 15/57/17 18/58/17 2/59/17
f 15/60/18 16/61/18 19/62/18 18/63/18
f 16/64/19 17/65/19 20/66/19 19/67/19
f 20/68/20 17/69/20 1/70/20
f 18/71/21 21/72/21 2/73/21
f 18/74/22 19/75/22 22/76/22 21/77/22
f 19/78/23 20/79/23 23/80/23 22/81/23
f 23/82/24 20/83/24 1/84/24
f 21/85/25 24/86/25 2/87/25
f 21/88/26 22/89/26 25/90/26 24/91/26
f 22/92/27 23/93/27 26/94/27 25/95/27
f 26/96/28 23/97/28 1/98/28
f 24/99/29 3/100/29 2/101/29
f 24/102/30 25/103/30 4/104/30 3/105/30
f 25/106/31 26/107/31 5/108/31 4/109/31
f 5/110/32 26/111/32 1/112/32