# Made in Blockbench 4.8.3
mtllib Spike.mtl

o tube
v 0.025888347648318447 0 0.062499999999999986
v 0.025888347648318447 0.375 0.062499999999999986
v 0.002132997924679382 0 0.0051495125182746205
v 0.002132997924679382 0.375 0.0051495125182746205
v 0.0625 0 0.025888347648318436
v 0.0625 0.375 0.025888347648318436
v 0.005149512518274628 0 0.0021329979246793745
v 0.005149512518274628 0.375 0.0021329979246793745
v 0.0625 0 -0.025888347648318447
v 0.0625 0.375 -0.025888347648318447
v 0.005149512518274628 0 -0.002132997924679387
v 0.005149512518274628 0.375 -0.002132997924679387
v 0.02588834764831845 0 -0.0625
v 0.02588834764831845 0.375 -0.0625
v 0.0021329979246793827 0 -0.005149512518274634
v 0.0021329979246793827 0.375 -0.005149512518274634
v -0.025888347648318436 0 -0.06250000000000001
v -0.025888347648318436 0.375 -0.06250000000000001
v -0.0021329979246793793 0 -0.005149512518274634
v -0.0021329979246793793 0.375 -0.005149512518274634
v -0.06249999999999998 0 -0.025888347648318488
v -0.06249999999999998 0.375 -0.025888347648318488
v -0.005149512518274624 0 -0.0021329979246793905
v -0.005149512518274624 0.375 -0.0021329979246793905
v -0.0625 0 0.02588834764831845
v -0.0625 0.375 0.02588834764831845
v -0.005149512518274625 0 0.002132997924679375
v -0.005149512518274625 0.375 0.002132997924679375
v -0.02588834764831848 0 0.06249999999999997
v -0.02588834764831848 0.375 0.06249999999999997
v -0.002132997924679383 0 0.005149512518274618
v -0.002132997924679383 0.375 0.005149512518274618
vt 0.375 0.8125
vt 0.40625 0.8125
vt 0.40625 1
vt 0.375 1
vt 0.28125 1
vt 0.25 1
vt 0.25 0.8125
vt 0.28125 0.8125
vt 0.094815625 0.533825
vt 0.096325 0.5323156250000001
vt 0.125 0.54419375
vt 0.10669375 0.5625
vt 0.20044375 0.5
vt 0.21875 0.51830625
vt 0.190075 0.5301843749999999
vt 0.18856562500000001 0.528675
vt 0 0.8125
vt 0.03125 0.8125
vt 0.03125 1
vt 0 1
vt 0.09375 1
vt 0.0625 1
vt 0.0625 0.8125
vt 0.09375 0.8125
vt 0.096325 0.5323156250000001
vt 0.096325 0.5301843749999999
vt 0.125 0.51830625
vt 0.125 0.54419375
vt 0.21875 0.51830625
vt 0.21875 0.54419375
vt 0.190075 0.5323156250000001
vt 0.190075 0.5301843749999999
vt 0.375 0.59375
vt 0.40625 0.59375
vt 0.40625 0.78125
vt 0.375 0.78125
vt 0.28125 0.78125
vt 0.25 0.78125
vt 0.25 0.59375
vt 0.28125 0.59375
vt 0.096325 0.5301843749999999
vt 0.094815625 0.528675
vt 0.10669375 0.5
vt 0.125 0.51830625
vt 0.21875 0.54419375
vt 0.20044375 0.5625
vt 0.18856562500000001 0.533825
vt 0.190075 0.5323156250000001
vt 0.125 0.59375
vt 0.15625 0.59375
vt 0.15625 0.78125
vt 0.125 0.78125
vt 0.15625 1
vt 0.125 1
vt 0.125 0.8125
vt 0.15625 0.8125
vt 0.094815625 0.528675
vt 0.092684375 0.528675
vt 0.08080625 0.5
vt 0.10669375 0.5
vt 0.20044375 0.5625
vt 0.17455625 0.5625
vt 0.18643437499999999 0.533825
vt 0.18856562500000001 0.533825
vt 0.4375 0.8125
vt 0.46875 0.8125
vt 0.46875 1
vt 0.4375 1
vt 0.03125 0.5625
vt 0 0.5625
vt 0 0.375
vt 0.03125 0.375
vt 0.092684375 0.528675
vt 0.091175 0.5301843749999999
vt 0.0625 0.51830625
vt 0.08080625 0.5
vt 0.17455625 0.5625
vt 0.15625 0.54419375
vt 0.184925 0.5323156250000001
vt 0.18643437499999999 0.533825
vt 0 0.59375
vt 0.03125 0.59375
vt 0.03125 0.78125
vt 0 0.78125
vt 0.21875 1
vt 0.1875 1
vt 0.1875 0.8125
vt 0.21875 0.8125
vt 0.091175 0.5301843749999999
vt 0.091175 0.5323156250000001
vt 0.0625 0.54419375
vt 0.0625 0.51830625
vt 0.15625 0.54419375
vt 0.15625 0.51830625
vt 0.184925 0.5301843749999999
vt 0.184925 0.5323156250000001
vt 0.3125 0.8125
vt 0.34375 0.8125
vt 0.34375 1
vt 0.3125 1
vt 0.34375 0.78125
vt 0.3125 0.78125
vt 0.3125 0.59375
vt 0.34375 0.59375
vt 0.091175 0.5323156250000001
vt 0.092684375 0.533825
vt 0.08080625 0.5625
vt 0.0625 0.54419375
vt 0.15625 0.51830625
vt 0.17455625 0.5
vt 0.18643437499999999 0.528675
vt 0.184925 0.5301843749999999
vt 0.0625 0.59375
vt 0.09375 0.59375
vt 0.09375 0.78125
vt 0.0625 0.78125
vt 0.21875 0.78125
vt 0.1875 0.78125
vt 0.1875 0.59375
vt 0.21875 0.59375
vt 0.092684375 0.533825
vt 0.094815625 0.533825
vt 0.10669375 0.5625
vt 0.08080625 0.5625
vt 0.17455625 0.5
vt 0.20044375 0.5
vt 0.18856562500000001 0.528675
vt 0.18643437499999999 0.528675
vn 0.7071067811865476 0 0.7071067811865476
vn -0.7071067811865476 0 -0.7071067811865476
vn 0 -1 0
vn 0 1 0
vn 1 0 0
vn -1 0 0
vn 0 -1 0
vn 0 1 0
vn 0.7071067811865476 0 -0.7071067811865476
vn -0.7071067811865477 0 0.7071067811865474
vn 0 -1 0
vn 0 1 0
vn 2.6803154833089315e-16 0 -1
vn 0 0 1
vn 0 -1 0
vn 0 1 0
vn -0.7071067811865475 0 -0.7071067811865477
vn 0.7071067811865474 0 0.7071067811865477
vn 0 -1 0
vn 0 1 0
vn -1 0 -4.020473224963393e-16
vn 1 0 2.0331987386222593e-16
vn 0 -1 0
vn 0 1 0
vn -0.7071067811865476 0 0.7071067811865475
vn 0.7071067811865477 0 -0.7071067811865474
vn 0 -1 0
vn 0 1 0
vn -2.680315483308929e-16 0 1
vn 6.099596215866778e-16 0 -1
vn 0 -1 0
vn 0 1 0
usemtl m_725a2799-340a-8cf9-b3f1-6fdc18769f20
f 1/1/1 5/2/1 6/3/1 2/4/1
f 4/5/2 8/6/2 7/7/2 3/8/2
f 3/9/3 7/10/3 5/11/3 1/12/3
f 2/13/4 6/14/4 8/15/4 4/16/4
f 5/17/5 9/18/5 10/19/5 6/20/5
f 8/21/6 12/22/6 11/23/6 7/24/6
f 7/25/7 11/26/7 9/27/7 5/28/7
f 6/29/8 10/30/8 12/31/8 8/32/8
f 9/33/9 13/34/9 14/35/9 10/36/9
f 12/37/10 16/38/10 15/39/10 11/40/10
f 11/41/11 15/42/11 13/43/11 9/44/11
f 10/45/12 14/46/12 16/47/12 12/48/12
f 13/49/13 17/50/13 18/51/13 14/52/13
f 16/53/14 20/54/14 19/55/14 15/56/14
f 15/57/15 19/58/15 17/59/15 13/60/15
f 14/61/16 18/62/16 20/63/16 16/64/16
f 17/65/17 21/66/17 22/67/17 18/68/17
f 20/69/18 24/70/18 23/71/18 19/72/18
f 19/73/19 23/74/19 21/75/19 17/76/19
f 18/77/20 22/78/20 24/79/20 20/80/20
f 21/81/21 25/82/21 26/83/21 22/84/21
f 24/85/22 28/86/22 27/87/22 23/88/22
f 23/89/23 27/90/23 25/91/23 21/92/23
f 22/93/24 26/94/24 28/95/24 24/96/24
f 25/97/25 29/98/25 30/99/25 26/100/25
f 28/101/26 32/102/26 31/103/26 27/104/26
f 27/105/27 31/106/27 29/107/27 25/108/27
f 26/109/28 30/110/28 32/111/28 28/112/28
f 29/113/29 1/114/29 2/115/29 30/116/29
f 32/117/30 4/118/30 3/119/30 31/120/30
f 31/121/31 3/122/31 1/123/31 29/124/31
f 30/125/32 2/126/32 4/127/32 32/128/32
o cone
v 3.469446951953614e-18 0.375 -6.938893903907228e-18
v 3.469446951953614e-18 0.625 -6.938893903907228e-18
v 0.025888347648318447 0.375 0.062499999999999986
v 0.0625 0.375 0.02588834764831844
v 0.0625 0.375 -0.025888347648318447
v 0.025888347648318454 0.375 -0.0625
v -0.025888347648318433 0.375 -0.06250000000000001
v -0.06249999999999998 0.375 -0.025888347648318488
v -0.06249999999999999 0.375 0.02588834764831845
v -0.02588834764831848 0.375 0.06249999999999998
vt 0.5 0.76294375
vt 0.48169375000000003 0.78125
vt 0.46875 0.75
vt 0.2554921464227196 0.373092195510207
vt 0.28125 0.37050460293381804
vt 0.28125 0.5
vt 0.5 0.73705625
vt 0.5 0.76294375
vt 0.46875 0.75
vt 0.5027460732113598 0.873092195510207
vt 0.5285039267886402 0.870504602933818
vt 0.5285039267886402 1
vt 0.48169375000000003 0.71875
vt 0.5 0.73705625
vt 0.46875 0.75
vt 0.3125 0.373092195510207
vt 0.3382578535772804 0.37050460293381804
vt 0.3382578535772804 0.5
vt 0.45580625 0.71875
vt 0.48169375000000003 0.71875
vt 0.46875 0.75
vt 0.4402460732113598 0.498092195510207
vt 0.4660039267886402 0.49550460293381804
vt 0.46600392678864017 0.625
vt 0.4375 0.73705625
vt 0.45580625 0.71875
vt 0.46875 0.75
vt 0.3804921464227196 0.373092195510207
vt 0.40625 0.37050460293381804
vt 0.40625 0.5
vt 0.4375 0.76294375
vt 0.4375 0.73705625
vt 0.46875 0.75
vt 0.439158551466909 0.6875
vt 0.44174614404329804 0.6617421464227196
vt 0.568653948533091 0.6875
vt 0.45580625 0.78125
vt 0.4375 0.76294375
vt 0.46875 0.75
vt 0.5 0.498092195510207
vt 0.5257578535772804 0.49550460293381804
vt 0.5257578535772804 0.625
vt 0.48169375000000003 0.78125
vt 0.45580625 0.78125
vt 0.46875 0.75
vt 0.251658551466909 0.5625
vt 0.25424614404329804 0.5367421464227196
vt 0.381153948533091 0.5625
vn 0 -1 0
vn 0.6859943405700353 0.24253562503633297 0.6859943405700354
vn 0 -1 0
vn 0.9701425001453319 0.24253562503633297 0
vn 0 -1 0
vn 0.6859943405700355 0.24253562503633302 -0.6859943405700354
vn 0 -1 0
vn 2.6002879641555703e-16 0.24253562503633297 -0.9701425001453319
vn 0 -1 0
vn -0.6859943405700352 0.242535625036333 -0.6859943405700355
vn 0 -1 0
vn -0.9701425001453319 0.24253562503633294 -2.600287964155568e-16
vn 0 -1 0
vn -0.6859943405700355 0.24253562503633308 0.6859943405700353
vn 0 -1 0
vn -1.3001439820777842e-16 0.2425356250363329 0.9701425001453319
usemtl m_725a2799-340a-8cf9-b3f1-6fdc18769f20
f 36/129/33 35/130/33 33/131/33
f 35/132/34 36/133/34 34/134/34
f 37/135/35 36/136/35 33/137/35
f 36/138/36 37/139/36 34/140/36
f 38/141/37 37/142/37 33/143/37
f 37/144/38 38/145/38 34/146/38
f 39/147/39 38/148/39 33/149/39
f 38/150/40 39/151/40 34/152/40
f 40/153/41 39/154/41 33/155/41
f 39/156/42 40/157/42 34/158/42
f 41/159/43 40/160/43 33/161/43
f 40/162/44 41/163/44 34/164/44
f 42/165/45 41/166/45 33/167/45
f 41/168/46 42/169/46 34/170/46
f 35/171/47 42/172/47 33/173/47
f 42/174/48 35/175/48 34/176/48